<svg width="20" height="24" viewBox="0 0 20 24" fill="none" xmlns="http://www.w3.org/2000/svg">
<path d="M13.6842 0H2.10526C0.947368 0 0 0.947368 0 2.10526V15.7895C0 16.3684 0.473684 16.8421 1.05263 16.8421C1.63158 16.8421 2.10526 16.3684 2.10526 15.7895V3.15789C2.10526 2.57895 2.57895 2.10526 3.15789 2.10526H13.6842C14.2632 2.10526 14.7368 1.63158 14.7368 1.05263C14.7368 0.473684 14.2632 0 13.6842 0ZM17.8947 4.21053H6.31579C5.15789 4.21053 4.21053 5.15789 4.21053 6.31579V21.0526C4.21053 22.2105 5.15789 23.1579 6.31579 23.1579H17.8947C19.0526 23.1579 20 22.2105 20 21.0526V6.31579C20 5.15789 19.0526 4.21053 17.8947 4.21053ZM16.8421 21.0526H7.36842C6.78947 21.0526 6.31579 20.5789 6.31579 20V7.36842C6.31579 6.78947 6.78947 6.31579 7.36842 6.31579H16.8421C17.4211 6.31579 17.8947 6.78947 17.8947 7.36842V20C17.8947 20.5789 17.4211 21.0526 16.8421 21.0526Z" fill="#78D3AA"/>
</svg>
