<svg width="16" height="16" viewBox="0 0 20 20" fill="none" xmlns="http://www.w3.org/2000/svg">
<g clip-path="url(#clip0_106_19)">
<path d="M12.7583 7.24183C15.0922 9.57811 15.0601 13.3238 12.7724 15.6242C12.7681 15.6289 12.763 15.634 12.7583 15.6387L10.1333 18.2637C7.81807 20.5789 4.05131 20.5786 1.73643 18.2637C-0.578809 15.9489 -0.578809 12.1817 1.73643 9.86683L3.18588 8.41737C3.57025 8.033 4.23221 8.28847 4.25205 8.83167C4.27736 9.52393 4.4015 10.2194 4.63057 10.8911C4.70814 11.1185 4.65272 11.3701 4.48279 11.54L3.97158 12.0512C2.87682 13.146 2.84248 14.9285 3.92646 16.034C5.02115 17.1504 6.82045 17.157 7.92354 16.0539L10.5485 13.4293C11.6497 12.3281 11.6451 10.5482 10.5485 9.45159C10.404 9.30729 10.2583 9.19518 10.1446 9.11686C10.0641 9.0616 9.99767 8.9883 9.95056 8.90281C9.90344 8.81731 9.87696 8.72199 9.87322 8.62444C9.85775 8.21167 10.004 7.78632 10.3302 7.46015L11.1526 6.63768C11.3683 6.42202 11.7066 6.39554 11.9567 6.57007C12.2431 6.77005 12.5113 6.99483 12.7583 7.24183ZM18.2636 1.73628C15.9487 -0.578644 12.1819 -0.578956 9.8667 1.73628L7.2417 4.36128C7.23701 4.36597 7.23193 4.37104 7.22764 4.37573C4.9399 6.6762 4.90783 10.4219 7.2417 12.7582C7.48868 13.0051 7.75692 13.2299 8.0433 13.4299C8.29338 13.6044 8.63174 13.5779 8.84736 13.3623L9.66979 12.5398C9.99596 12.2136 10.1422 11.7883 10.1267 11.3755C10.123 11.278 10.0965 11.1826 10.0494 11.0971C10.0023 11.0116 9.93584 10.9383 9.85537 10.8831C9.74162 10.8048 9.596 10.6926 9.45143 10.5483C8.35482 9.45175 8.35022 7.67182 9.45143 6.57061L12.0764 3.946C13.1795 2.84292 14.9788 2.84956 16.0735 3.96593C17.1575 5.0714 17.1232 6.85397 16.0284 7.94874L15.5172 8.45995C15.3472 8.62987 15.2918 8.88143 15.3694 9.10886C15.5985 9.7805 15.7226 10.476 15.7479 11.1683C15.7678 11.7115 16.4297 11.9669 16.8141 11.5826L18.2635 10.1331C20.5788 7.81831 20.5788 4.05112 18.2636 1.73628Z" fill="#78D3AA"/>
</g>
<defs>
<clipPath id="clip0_106_19">
<rect width="20" height="20" fill="white"/>
</clipPath>
</defs>
</svg>
